# Blender v2.93.0 OBJ File: 'HelloWorld.blend'
# www.blender.org
mtllib HelloWorld.mtl
o 立方体_立方体.225
v 2.311328 7.153088 -2.134693
v 2.311328 6.878224 -2.134693
v 2.311328 7.153088 -1.859830
v 2.311328 6.878224 -1.859830
v 2.036465 7.153088 -2.134693
v 2.036465 6.878224 -2.134693
v 2.036465 7.153088 -1.859830
v 2.036465 6.878224 -1.859830
vt 0.375000 0.000000
vt 0.375000 0.250000
vt 0.625000 0.250000
vt 0.625000 0.000000
vt 0.375000 0.500000
vt 0.625000 0.500000
vt 0.375000 0.750000
vt 0.625000 0.750000
vt 0.375000 1.000000
vt 0.625000 1.000000
vt 0.125000 0.500000
vt 0.125000 0.750000
vt 0.875000 0.750000
vt 0.875000 0.500000
vn 1.0000 0.0000 0.0000
vn 0.0000 0.0000 1.0000
vn -1.0000 0.0000 0.0000
vn 0.0000 0.0000 -1.0000
vn 0.0000 1.0000 0.0000
vn 0.0000 -1.0000 0.0000
usemtl None
s off
f 1/1/1 3/2/1 4/3/1 2/4/1
f 3/2/2 7/5/2 8/6/2 4/3/2
f 7/5/3 5/7/3 6/8/3 8/6/3
f 5/7/4 1/9/4 2/10/4 6/8/4
f 3/11/5 1/12/5 5/7/5 7/5/5
f 8/6/6 6/8/6 2/13/6 4/14/6
o 立方体.001_立方体.226
v 2.270117 6.169137 -1.849643
v 2.270117 6.038194 -1.849643
v 2.270117 6.169137 -1.718701
v 2.270117 6.038194 -1.718701
v 2.139174 6.169137 -1.849643
v 2.139174 6.038194 -1.849643
v 2.139174 6.169137 -1.718701
v 2.139174 6.038194 -1.718701
vt 0.375000 0.000000
vt 0.375000 0.250000
vt 0.625000 0.250000
vt 0.625000 0.000000
vt 0.375000 0.500000
vt 0.625000 0.500000
vt 0.375000 0.750000
vt 0.625000 0.750000
vt 0.375000 1.000000
vt 0.625000 1.000000
vt 0.125000 0.500000
vt 0.125000 0.750000
vt 0.875000 0.750000
vt 0.875000 0.500000
vn 1.0000 0.0000 0.0000
vn 0.0000 0.0000 1.0000
vn -1.0000 0.0000 0.0000
vn 0.0000 0.0000 -1.0000
vn 0.0000 1.0000 0.0000
vn 0.0000 -1.0000 0.0000
usemtl None
s off
f 9/15/7 11/16/7 12/17/7 10/18/7
f 11/16/8 15/19/8 16/20/8 12/17/8
f 15/19/9 13/21/9 14/22/9 16/20/9
f 13/21/10 9/23/10 10/24/10 14/22/10
f 11/25/11 9/26/11 13/21/11 15/19/11
f 16/20/12 14/22/12 10/27/12 12/28/12
o 立方体.002_立方体.227
v 2.342077 6.651604 -1.784172
v 2.342077 6.376741 -1.784172
v 2.342077 6.651604 -1.509308
v 2.342077 6.376741 -1.509308
v 2.067214 6.651604 -1.784172
v 2.067214 6.376741 -1.784172
v 2.067214 6.651604 -1.509308
v 2.067214 6.376741 -1.509308
vt 0.375000 0.000000
vt 0.375000 0.250000
vt 0.625000 0.250000
vt 0.625000 0.000000
vt 0.375000 0.500000
vt 0.625000 0.500000
vt 0.375000 0.750000
vt 0.625000 0.750000
vt 0.375000 1.000000
vt 0.625000 1.000000
vt 0.125000 0.500000
vt 0.125000 0.750000
vt 0.875000 0.750000
vt 0.875000 0.500000
vn 1.0000 0.0000 0.0000
vn 0.0000 0.0000 1.0000
vn -1.0000 0.0000 0.0000
vn 0.0000 0.0000 -1.0000
vn 0.0000 1.0000 0.0000
vn 0.0000 -1.0000 0.0000
usemtl None
s off
f 17/29/13 19/30/13 20/31/13 18/32/13
f 19/30/14 23/33/14 24/34/14 20/31/14
f 23/33/15 21/35/15 22/36/15 24/34/15
f 21/35/16 17/37/16 18/38/16 22/36/16
f 19/39/17 17/40/17 21/35/17 23/33/17
f 24/34/18 22/36/18 18/41/18 20/42/18
o 立方体.003_立方体.228
v 2.251372 6.844743 -1.556035
v 2.251372 6.754038 -1.646740
v 2.342077 6.754038 -1.556035
v 2.251372 6.660584 -1.646740
v 2.251372 6.569880 -1.556035
v 2.342077 6.660584 -1.556035
v 2.251372 6.844743 -1.462581
v 2.342077 6.754038 -1.462581
v 2.251372 6.754038 -1.371876
v 2.251372 6.569880 -1.462581
v 2.251372 6.660584 -1.371876
v 2.342077 6.660584 -1.462581
v 2.157919 6.844743 -1.556035
v 2.067214 6.754038 -1.556035
v 2.157919 6.754038 -1.646740
v 2.157919 6.569880 -1.556035
v 2.157919 6.660584 -1.646740
v 2.067214 6.660584 -1.556035
v 2.157919 6.844743 -1.462581
v 2.157919 6.754038 -1.371876
v 2.067214 6.754038 -1.462581
v 2.157919 6.569880 -1.462581
v 2.067214 6.660584 -1.462581
v 2.157919 6.660584 -1.371876
vt 0.457500 0.832500
vt 0.457500 0.917500
vt 0.542500 0.917500
vt 0.542500 0.832500
vt 0.457500 0.582500
vt 0.457500 0.667500
vt 0.542500 0.667500
vt 0.542500 0.582500
vt 0.707500 0.582500
vt 0.707500 0.667500
vt 0.792500 0.667500
vt 0.792500 0.582500
vt 0.457500 0.082500
vt 0.457500 0.167500
vt 0.542500 0.167500
vt 0.542500 0.082500
vt 0.457500 0.332500
vt 0.457500 0.417500
vt 0.542500 0.417500
vt 0.542500 0.332500
vt 0.207500 0.667500
vt 0.125000 0.667500
vt 0.207500 0.750000
vt 0.542500 1.000000
vt 0.625000 0.917500
vt 0.207500 0.582500
vt 0.207500 0.500000
vt 0.125000 0.582500
vt 0.625000 0.332500
vt 0.542500 0.250000
vt 0.625000 0.332500
vt 0.292500 0.667500
vt 0.292500 0.750000
vt 0.375000 0.667500
vt 0.625000 0.832500
vt 0.542500 0.750000
vt 0.625000 0.832500
vt 0.292500 0.582500
vt 0.375000 0.582500
vt 0.292500 0.500000
vt 0.625000 0.582500
vt 0.542500 0.500000
vt 0.625000 0.582500
vt 0.457500 0.000000
vt 0.542500 0.000000
vt 0.625000 0.082500
vt 0.625000 0.167500
vt 0.625000 0.417500
vn 0.0000 0.0000 -1.0000
vn -1.0000 0.0000 0.0000
vn 0.0000 -1.0000 0.0000
vn 1.0000 0.0000 0.0000
vn 0.0000 0.0000 1.0000
vn 0.5774 0.5774 -0.5773
vn 0.5774 -0.5774 -0.5773
vn 0.5773 0.5774 0.5773
vn 0.5773 -0.5774 0.5773
vn -0.5774 0.5774 -0.5773
vn -0.5774 -0.5774 -0.5773
vn -0.5774 0.5774 0.5773
vn -0.5774 -0.5774 0.5773
vn 0.7071 0.7071 0.0000
vn 0.7071 0.0000 -0.7071
vn 0.7071 -0.7071 0.0000
vn 0.7071 0.0000 0.7071
vn 0.0000 0.7071 0.7071
vn 0.0000 -0.7071 0.7071
vn -0.7071 0.0000 0.7071
vn -0.7071 0.7071 0.0000
vn -0.7071 -0.7071 0.0000
vn -0.7071 0.0000 -0.7071
vn 0.0000 0.7071 -0.7071
vn 0.0000 -0.7071 -0.7071
vn 0.0000 1.0000 0.0000
usemtl 材质.002
s off
f 39/43/19 26/44/19 28/45/19 41/46/19
f 45/47/20 38/48/20 42/49/20 47/50/20
f 46/51/21 40/52/21 29/53/21 34/54/21
f 27/55/22 32/56/22 36/57/22 30/58/22
f 33/59/23 44/60/23 48/61/23 35/62/23
f 25/63/24 27/64/24 26/65/24
f 28/45/25 30/66/25 29/67/25
f 31/68/26 33/69/26 32/70/26
f 34/71/27 36/72/27 35/73/27
f 37/74/28 39/75/28 38/76/28
f 40/77/29 42/78/29 41/79/29
f 43/80/30 45/81/30 44/82/30
f 46/83/31 48/84/31 47/85/31
f 31/68/32 32/70/32 27/64/32 25/63/32
f 26/86/33 27/55/33 30/58/33 28/87/33
f 29/88/34 30/58/34 36/57/34 34/89/34
f 35/62/35 36/57/35 32/56/35 33/59/35
f 43/80/36 44/82/36 33/69/36 31/68/36
f 34/71/37 35/62/37 48/61/37 46/90/37
f 47/50/38 48/61/38 44/60/38 45/47/38
f 37/74/39 38/48/39 45/47/39 43/80/39
f 46/51/40 47/50/40 42/49/40 40/52/40
f 41/46/41 42/49/41 38/48/41 39/43/41
f 25/63/42 26/65/42 39/75/42 37/74/42
f 40/77/43 41/46/43 28/45/43 29/67/43
f 31/68/44 25/63/44 37/74/44 43/80/44
o 立方体.004_立方体.229
v 2.204645 5.985439 -2.059035
v 2.204645 5.710576 -2.059035
v 2.204645 5.985439 -1.784172
v 2.204645 5.710576 -1.784172
v 1.929782 5.985439 -2.059035
v 1.929782 5.710576 -2.059035
v 1.929782 5.985439 -1.784172
v 1.929782 5.710576 -1.784172
vt 0.375000 0.000000
vt 0.375000 0.250000
vt 0.625000 0.250000
vt 0.625000 0.000000
vt 0.375000 0.500000
vt 0.625000 0.500000
vt 0.375000 0.750000
vt 0.625000 0.750000
vt 0.375000 1.000000
vt 0.625000 1.000000
vt 0.125000 0.500000
vt 0.125000 0.750000
vt 0.875000 0.750000
vt 0.875000 0.500000
vn 1.0000 0.0000 0.0000
vn 0.0000 0.0000 1.0000
vn -1.0000 0.0000 0.0000
vn 0.0000 0.0000 -1.0000
vn 0.0000 1.0000 0.0000
vn 0.0000 -1.0000 0.0000
usemtl None
s off
f 49/91/45 51/92/45 52/93/45 50/94/45
f 51/92/46 55/95/46 56/96/46 52/93/46
f 55/95/47 53/97/47 54/98/47 56/96/47
f 53/97/48 49/99/48 50/100/48 54/98/48
f 51/101/49 49/102/49 53/97/49 55/95/49
f 56/96/50 54/98/50 50/103/50 52/104/50
o 立方体.005_立方体.230
v 2.204645 5.882030 -1.921603
v 2.204645 5.607167 -1.921603
v 2.204645 5.882030 -1.646740
v 2.204645 5.607167 -1.646740
v 1.929782 5.882030 -1.921603
v 1.929782 5.607167 -1.921603
v 1.929782 5.882030 -1.646740
v 1.929782 5.607167 -1.646740
vt 0.375000 0.000000
vt 0.375000 0.250000
vt 0.625000 0.250000
vt 0.625000 0.000000
vt 0.375000 0.500000
vt 0.625000 0.500000
vt 0.375000 0.750000
vt 0.625000 0.750000
vt 0.375000 1.000000
vt 0.625000 1.000000
vt 0.125000 0.500000
vt 0.125000 0.750000
vt 0.875000 0.750000
vt 0.875000 0.500000
vn 1.0000 0.0000 0.0000
vn 0.0000 0.0000 1.0000
vn -1.0000 0.0000 0.0000
vn 0.0000 0.0000 -1.0000
vn 0.0000 1.0000 0.0000
vn 0.0000 -1.0000 0.0000
usemtl None
s off
f 57/105/51 59/106/51 60/107/51 58/108/51
f 59/106/52 63/109/52 64/110/52 60/107/52
f 63/109/53 61/111/53 62/112/53 64/110/53
f 61/111/54 57/113/54 58/114/54 62/112/54
f 59/115/55 57/116/55 61/111/55 63/109/55
f 64/110/56 62/112/56 58/117/56 60/118/56
o 立方体.006_立方体.231
v 2.204645 5.891217 -1.784172
v 2.204645 5.616354 -1.784172
v 2.204645 5.891217 -1.509308
v 2.204645 5.616354 -1.509308
v 1.929782 5.891217 -1.784172
v 1.929782 5.616354 -1.784172
v 1.929782 5.891217 -1.509308
v 1.929782 5.616354 -1.509308
vt 0.375000 0.000000
vt 0.375000 0.250000
vt 0.625000 0.250000
vt 0.625000 0.000000
vt 0.375000 0.500000
vt 0.625000 0.500000
vt 0.375000 0.750000
vt 0.625000 0.750000
vt 0.375000 1.000000
vt 0.625000 1.000000
vt 0.125000 0.500000
vt 0.125000 0.750000
vt 0.875000 0.750000
vt 0.875000 0.500000
vn 1.0000 0.0000 0.0000
vn 0.0000 0.0000 1.0000
vn -1.0000 0.0000 0.0000
vn 0.0000 0.0000 -1.0000
vn 0.0000 1.0000 0.0000
vn 0.0000 -1.0000 0.0000
usemtl None
s off
f 65/119/57 67/120/57 68/121/57 66/122/57
f 67/120/58 71/123/58 72/124/58 68/121/58
f 71/123/59 69/125/59 70/126/59 72/124/59
f 69/125/60 65/127/60 66/128/60 70/126/60
f 67/129/61 65/130/61 69/125/61 71/123/61
f 72/124/62 70/126/62 66/131/62 68/132/62
o 立方体.007_立方体.232
v 2.204645 5.897436 -1.646740
v 2.204645 5.622573 -1.646740
v 2.204645 5.897436 -1.371876
v 2.204645 5.622573 -1.371876
v 1.929782 5.897436 -1.646740
v 1.929782 5.622573 -1.646740
v 1.929782 5.897436 -1.371876
v 1.929782 5.622573 -1.371876
vt 0.375000 0.000000
vt 0.375000 0.250000
vt 0.625000 0.250000
vt 0.625000 0.000000
vt 0.375000 0.500000
vt 0.625000 0.500000
vt 0.375000 0.750000
vt 0.625000 0.750000
vt 0.375000 1.000000
vt 0.625000 1.000000
vt 0.125000 0.500000
vt 0.125000 0.750000
vt 0.875000 0.750000
vt 0.875000 0.500000
vn 1.0000 0.0000 0.0000
vn 0.0000 0.0000 1.0000
vn -1.0000 0.0000 0.0000
vn 0.0000 0.0000 -1.0000
vn 0.0000 1.0000 0.0000
vn 0.0000 -1.0000 0.0000
usemtl None
s off
f 73/133/63 75/134/63 76/135/63 74/136/63
f 75/134/64 79/137/64 80/138/64 76/135/64
f 79/137/65 77/139/65 78/140/65 80/138/65
f 77/139/66 73/141/66 74/142/66 78/140/66
f 75/143/67 73/144/67 77/139/67 79/137/67
f 80/138/68 78/140/68 74/145/68 76/146/68
o 立方体.008_立方体.233
v 1.915395 5.619459 -2.141699
v 2.006117 5.388669 -2.023142
v 2.000943 5.764638 -1.924548
v 2.091665 5.533849 -1.805991
v 1.670444 5.584684 -2.021951
v 1.761166 5.353895 -1.903394
v 1.755991 5.729864 -1.804800
v 1.846713 5.499074 -1.686243
vt 0.375000 0.000000
vt 0.375000 0.250000
vt 0.625000 0.250000
vt 0.625000 0.000000
vt 0.375000 0.500000
vt 0.625000 0.500000
vt 0.375000 0.750000
vt 0.625000 0.750000
vt 0.375000 1.000000
vt 0.625000 1.000000
vt 0.125000 0.500000
vt 0.125000 0.750000
vt 0.875000 0.750000
vt 0.875000 0.500000
vn 0.8912 0.1265 -0.4357
vn 0.3112 0.5282 0.7900
vn -0.8912 -0.1265 0.4357
vn -0.3112 -0.5282 -0.7900
vn -0.3301 0.8397 -0.4313
vn 0.3301 -0.8397 0.4313
usemtl None
s off
f 81/147/69 83/148/69 84/149/69 82/150/69
f 83/148/70 87/151/70 88/152/70 84/149/70
f 87/151/71 85/153/71 86/154/71 88/152/71
f 85/153/72 81/155/72 82/156/72 86/154/72
f 83/157/73 81/158/73 85/153/73 87/151/73
f 88/152/74 86/154/74 82/159/74 84/160/74
o 立方体.009_立方体.234
v 2.067214 6.417514 -1.921603
v 2.067214 6.142651 -1.921603
v 2.067214 6.417514 -1.646740
v 2.067214 6.142651 -1.646740
v 1.792350 6.417514 -1.921603
v 1.792350 6.142651 -1.921603
v 1.792350 6.417514 -1.646740
v 1.792350 6.142651 -1.646740
vt 0.375000 0.000000
vt 0.375000 0.250000
vt 0.625000 0.250000
vt 0.625000 0.000000
vt 0.375000 0.500000
vt 0.625000 0.500000
vt 0.375000 0.750000
vt 0.625000 0.750000
vt 0.375000 1.000000
vt 0.625000 1.000000
vt 0.125000 0.500000
vt 0.125000 0.750000
vt 0.875000 0.750000
vt 0.875000 0.500000
vn 1.0000 0.0000 0.0000
vn 0.0000 0.0000 1.0000
vn -1.0000 0.0000 0.0000
vn 0.0000 0.0000 -1.0000
vn 0.0000 1.0000 0.0000
vn 0.0000 -1.0000 0.0000
usemtl None
s off
f 89/161/75 91/162/75 92/163/75 90/164/75
f 91/162/76 95/165/76 96/166/76 92/163/76
f 95/165/77 93/167/77 94/168/77 96/166/77
f 93/167/78 89/169/78 90/170/78 94/168/78
f 91/171/79 89/172/79 93/167/79 95/165/79
f 96/166/80 94/168/80 90/173/80 92/174/80
o 立方体.010_立方体.235
v 2.011441 5.737932 -1.910830
v 2.102162 5.507143 -1.792272
v 2.096988 5.883111 -1.693678
v 2.187710 5.652322 -1.575121
v 1.766489 5.703158 -1.791082
v 1.857211 5.472369 -1.672524
v 1.852036 5.848337 -1.573931
v 1.942758 5.617548 -1.455373
vt 0.375000 0.000000
vt 0.375000 0.250000
vt 0.625000 0.250000
vt 0.625000 0.000000
vt 0.375000 0.500000
vt 0.625000 0.500000
vt 0.375000 0.750000
vt 0.625000 0.750000
vt 0.375000 1.000000
vt 0.625000 1.000000
vt 0.125000 0.500000
vt 0.125000 0.750000
vt 0.875000 0.750000
vt 0.875000 0.500000
vn 0.8912 0.1265 -0.4357
vn 0.3112 0.5282 0.7900
vn -0.8912 -0.1265 0.4357
vn -0.3112 -0.5282 -0.7900
vn -0.3301 0.8397 -0.4313
vn 0.3301 -0.8397 0.4313
usemtl None
s off
f 97/175/81 99/176/81 100/177/81 98/178/81
f 99/176/82 103/179/82 104/180/82 100/177/82
f 103/179/83 101/181/83 102/182/83 104/180/83
f 101/181/84 97/183/84 98/184/84 102/182/84
f 99/185/85 97/186/85 101/181/85 103/179/85
f 104/180/86 102/182/86 98/187/86 100/188/86
o 立方体.011_立方体.236
v 2.021546 5.927938 -1.622422
v 2.021546 5.653074 -1.622422
v 2.021546 5.927938 -1.347558
v 2.021546 5.653074 -1.347558
v 1.746682 5.927938 -1.622422
v 1.746682 5.653074 -1.622422
v 1.746682 5.927938 -1.347558
v 1.746682 5.653074 -1.347558
vt 0.375000 0.000000
vt 0.375000 0.250000
vt 0.625000 0.250000
vt 0.625000 0.000000
vt 0.375000 0.500000
vt 0.625000 0.500000
vt 0.375000 0.750000
vt 0.625000 0.750000
vt 0.375000 1.000000
vt 0.625000 1.000000
vt 0.125000 0.500000
vt 0.125000 0.750000
vt 0.875000 0.750000
vt 0.875000 0.500000
vn 1.0000 0.0000 0.0000
vn 0.0000 0.0000 1.0000
vn -1.0000 0.0000 0.0000
vn 0.0000 0.0000 -1.0000
vn 0.0000 1.0000 0.0000
vn 0.0000 -1.0000 0.0000
usemtl None
s off
f 105/189/87 107/190/87 108/191/87 106/192/87
f 107/190/88 111/193/88 112/194/88 108/191/88
f 111/193/89 109/195/89 110/196/89 112/194/89
f 109/195/90 105/197/90 106/198/90 110/196/90
f 107/199/91 105/200/91 109/195/91 111/193/91
f 112/194/92 110/196/92 106/201/92 108/202/92
o 立方体.012_立方体.237
v 1.929782 6.781731 -2.059035
v 1.929782 6.506867 -2.059035
v 1.929782 6.781731 -1.784172
v 1.929782 6.506867 -1.784172
v 1.654918 6.781731 -2.059035
v 1.654918 6.506867 -2.059035
v 1.654918 6.781731 -1.784172
v 1.654918 6.506867 -1.784172
vt 0.375000 0.000000
vt 0.375000 0.250000
vt 0.625000 0.250000
vt 0.625000 0.000000
vt 0.375000 0.500000
vt 0.625000 0.500000
vt 0.375000 0.750000
vt 0.625000 0.750000
vt 0.375000 1.000000
vt 0.625000 1.000000
vt 0.125000 0.500000
vt 0.125000 0.750000
vt 0.875000 0.750000
vt 0.875000 0.500000
vn 1.0000 0.0000 0.0000
vn 0.0000 0.0000 1.0000
vn -1.0000 0.0000 0.0000
vn 0.0000 0.0000 -1.0000
vn 0.0000 1.0000 0.0000
vn 0.0000 -1.0000 0.0000
usemtl None
s off
f 113/203/93 115/204/93 116/205/93 114/206/93
f 115/204/94 119/207/94 120/208/94 116/205/94
f 119/207/95 117/209/95 118/210/95 120/208/95
f 117/209/96 113/211/96 114/212/96 118/210/96
f 115/213/97 113/214/97 117/209/97 119/207/97
f 120/208/98 118/210/98 114/215/98 116/216/98
o 立方体.013_立方体.238
v 1.828102 5.693973 -1.983171
v 1.918824 5.463184 -1.864613
v 1.913649 5.839152 -1.766019
v 2.004371 5.608363 -1.647462
v 1.583150 5.659199 -1.863423
v 1.673872 5.428410 -1.744866
v 1.668698 5.804378 -1.646272
v 1.759419 5.573589 -1.527714
vt 0.375000 0.000000
vt 0.375000 0.250000
vt 0.625000 0.250000
vt 0.625000 0.000000
vt 0.375000 0.500000
vt 0.625000 0.500000
vt 0.375000 0.750000
vt 0.625000 0.750000
vt 0.375000 1.000000
vt 0.625000 1.000000
vt 0.125000 0.500000
vt 0.125000 0.750000
vt 0.875000 0.750000
vt 0.875000 0.500000
vn 0.8912 0.1265 -0.4357
vn 0.3112 0.5282 0.7900
vn -0.8912 -0.1265 0.4357
vn -0.3112 -0.5282 -0.7900
vn -0.3301 0.8397 -0.4313
vn 0.3301 -0.8397 0.4313
usemtl None
s off
f 121/217/99 123/218/99 124/219/99 122/220/99
f 123/218/100 127/221/100 128/222/100 124/219/100
f 127/221/101 125/223/101 126/224/101 128/222/101
f 125/223/102 121/225/102 122/226/102 126/224/102
f 123/227/103 121/228/103 125/223/103 127/221/103
f 128/222/104 126/224/104 122/229/104 124/230/104
o 立方体.014_立方体.239
v 1.929782 5.875514 -1.784172
v 1.929782 5.600651 -1.784172
v 1.929782 5.875514 -1.509308
v 1.929782 5.600651 -1.509308
v 1.654918 5.875514 -1.784172
v 1.654918 5.600651 -1.784172
v 1.654918 5.875514 -1.509308
v 1.654918 5.600651 -1.509308
vt 0.375000 0.000000
vt 0.375000 0.250000
vt 0.625000 0.250000
vt 0.625000 0.000000
vt 0.375000 0.500000
vt 0.625000 0.500000
vt 0.375000 0.750000
vt 0.625000 0.750000
vt 0.375000 1.000000
vt 0.625000 1.000000
vt 0.125000 0.500000
vt 0.125000 0.750000
vt 0.875000 0.750000
vt 0.875000 0.500000
vn 1.0000 0.0000 0.0000
vn 0.0000 0.0000 1.0000
vn -1.0000 0.0000 0.0000
vn 0.0000 0.0000 -1.0000
vn 0.0000 1.0000 0.0000
vn 0.0000 -1.0000 0.0000
usemtl None
s off
f 129/231/105 131/232/105 132/233/105 130/234/105
f 131/232/106 135/235/106 136/236/106 132/233/106
f 135/235/107 133/237/107 134/238/107 136/236/107
f 133/237/108 129/239/108 130/240/108 134/238/108
f 131/241/109 129/242/109 133/237/109 135/235/109
f 136/236/110 134/238/110 130/243/110 132/244/110
o 立方体.015_立方体.240
v 1.929782 6.691136 -1.646740
v 1.929782 6.416273 -1.646740
v 1.929782 6.691136 -1.371876
v 1.929782 6.416273 -1.371876
v 1.654918 6.691136 -1.646740
v 1.654918 6.416273 -1.646740
v 1.654918 6.691136 -1.371876
v 1.654918 6.416273 -1.371876
vt 0.375000 0.000000
vt 0.375000 0.250000
vt 0.625000 0.250000
vt 0.625000 0.000000
vt 0.375000 0.500000
vt 0.625000 0.500000
vt 0.375000 0.750000
vt 0.625000 0.750000
vt 0.375000 1.000000
vt 0.625000 1.000000
vt 0.125000 0.500000
vt 0.125000 0.750000
vt 0.875000 0.750000
vt 0.875000 0.500000
vn 1.0000 0.0000 0.0000
vn 0.0000 0.0000 1.0000
vn -1.0000 0.0000 0.0000
vn 0.0000 0.0000 -1.0000
vn 0.0000 1.0000 0.0000
vn 0.0000 -1.0000 0.0000
usemtl 材质.003
s off
f 137/245/111 139/246/111 140/247/111 138/248/111
f 139/246/112 143/249/112 144/250/112 140/247/112
f 143/249/113 141/251/113 142/252/113 144/250/113
f 141/251/114 137/253/114 138/254/114 142/252/114
f 139/255/115 137/256/115 141/251/115 143/249/115
f 144/250/116 142/252/116 138/257/116 140/258/116
